<svg xmlns="http://www.w3.org/2000/svg" viewBox="0 0 1157.3 249.5" width="1157" height="250" role="img" aria-label="Fortress Contabilidade">
  <title>Fortress Contabilidade</title>
  <defs>
  </defs>
  <g transform="translate(6,6)">
  <g transform="scale(0.41238)">
    <polygon points="200,0 300,64 300,192 200,128" fill="#FFFFFF" fill-opacity="0.95"/>
    <polygon points="100,64 200,128 100,192" fill="#FFFFFF" fill-opacity="0.55"/>
    <polygon points="100,192 200,128 200,256 100,320" fill="#FFFFFF" fill-opacity="0.8"/>
    <polygon points="100,320 200,256 300,320 200,384" fill="#FFFFFF" fill-opacity="1"/>
    <polygon points="0,256 100,320 100,448 0,384" fill="#FFFFFF" fill-opacity="0.9"/>
    <polygon points="100,448 200,512 100,576" fill="#FFFFFF" fill-opacity="0.75"/>
    <polygon points="200,384 300,448 300,576 200,512" fill="#FFFFFF" fill-opacity="0.55"/>
  </g>
  <path transform="translate(193.7,132.0)" fill="#FFFFFF" d="M4.4 0.0V-2.0L8.0 -3.2Q12.0 -4.6000000000000005 13.4 -7.0Q14.8 -9.4 14.8 -13.4Q15.0 -25.400000000000002 15.0 -37.6Q15.0 -49.800000000000004 15.0 -62.0V-70.0Q15.0 -82.0 15.0 -94.1Q15.0 -106.2 14.8 -118.2Q14.8 -122.2 13.700000000000001 -124.6Q12.600000000000001 -127.0 8.8 -128.4L4.4 -130.0V-132.0H101.2L102.60000000000001 -98.80000000000001H100.60000000000001L89.2 -119.80000000000001Q87.2 -123.60000000000001 84.6 -125.80000000000001Q82.0 -128.0 77.4 -128.0H45.2Q45.0 -113.80000000000001 45.0 -99.0Q45.0 -84.2 45.0 -69.60000000000001H65.8Q70.4 -69.60000000000001 72.6 -71.60000000000001Q74.8 -73.60000000000001 76.80000000000001 -77.4L81.0 -85.0H83.0V-50.0H81.0L76.60000000000001 -57.6Q74.60000000000001 -61.2 72.5 -63.400000000000006Q70.4 -65.60000000000001 65.8 -65.60000000000001H45.0Q45.0 -51.6 45.0 -38.900000000000006Q45.0 -26.200000000000003 45.2 -14.0Q45.2 -6.2 52.800000000000004 -3.8000000000000003L58.800000000000004 -2.0V0.0ZM176.60000000000002 3.6Q164.4 3.6 153.10000000000002 -0.8Q141.8 -5.2 132.9 -13.9Q124.00000000000001 -22.6 118.80000000000001 -35.6Q113.60000000000001 -48.6 113.60000000000001 -66.0Q113.60000000000001 -83.2 118.80000000000001 -96.2Q124.00000000000001 -109.2 133.0 -117.9Q142.0 -126.60000000000001 153.3 -131.1Q164.60000000000002 -135.6 176.60000000000002 -135.6Q188.8 -135.6 200.10000000000002 -131.3Q211.40000000000003 -127.0 220.3 -118.30000000000001Q229.20000000000002 -109.60000000000001 234.40000000000003 -96.5Q239.60000000000002 -83.4 239.60000000000002 -66.0Q239.60000000000002 -49.0 234.40000000000003 -35.9Q229.20000000000002 -22.8 220.3 -14.100000000000001Q211.40000000000003 -5.4 200.10000000000002 -0.9000000000000001Q188.8 3.6 176.60000000000002 3.6ZM176.60000000000002 -0.6000000000000001Q187.60000000000002 -0.6000000000000001 194.40000000000003 -6.5Q201.20000000000002 -12.4 204.3 -26.7Q207.40000000000003 -41.0 207.40000000000003 -66.0Q207.40000000000003 -91.2 204.3 -105.5Q201.20000000000002 -119.80000000000001 194.40000000000003 -125.7Q187.60000000000002 -131.6 176.60000000000002 -131.6Q165.8 -131.6 159.0 -125.7Q152.20000000000002 -119.80000000000001 149.10000000000002 -105.5Q146.0 -91.2 146.0 -66.0Q146.0 -41.0 149.10000000000002 -26.7Q152.20000000000002 -12.4 159.0 -6.5Q165.8 -0.6000000000000001 176.60000000000002 -0.6000000000000001ZM250.00000000000003 0.0V-2.0L254.20000000000002 -3.4000000000000004Q258.20000000000005 -4.800000000000001 259.40000000000003 -7.1000000000000005Q260.6 -9.4 260.6 -13.600000000000001V-118.2Q260.6 -122.2 259.5 -124.5Q258.40000000000003 -126.80000000000001 254.60000000000002 -128.20000000000002L250.00000000000003 -130.0V-132.0H307.20000000000005Q330.8 -132.0 343.4 -123.1Q356.0 -114.2 356.0 -98.4Q356.0 -89.60000000000001 349.4 -80.80000000000001Q342.8 -72.0 328.6 -67.2L356.40000000000003 -12.0Q358.20000000000005 -8.6 360.5 -6.5Q362.8 -4.4 366.6 -2.8000000000000003L369.20000000000005 -1.8V0.0H333.40000000000003L303.8 -63.0H290.20000000000005V-13.600000000000001Q290.20000000000005 -9.8 291.40000000000003 -7.4Q292.6 -5.0 296.40000000000003 -3.8000000000000003L301.20000000000005 -2.0V0.0ZM290.20000000000005 -67.0H299.8Q314.20000000000005 -67.0 320.6 -74.7Q327.0 -82.4 327.0 -97.60000000000001Q327.0 -113.0 321.0 -120.5Q315.0 -128.0 300.8 -128.0H290.20000000000005ZM404.40000000000003 0.0V-2.0L412.6 -4.0Q420.80000000000007 -5.800000000000001 420.80000000000007 -14.0V-128.0H403.80000000000007Q396.40000000000003 -128.0 393.20000000000005 -124.1Q390.00000000000006 -120.2 386.40000000000003 -113.4L379.20000000000005 -99.4H377.20000000000005L378.20000000000005 -132.0H493.6L494.40000000000003 -99.4H492.40000000000003L485.20000000000005 -113.4Q481.80000000000007 -120.2 478.6 -124.1Q475.40000000000003 -128.0 468.00000000000006 -128.0H451.00000000000006V-14.0Q451.00000000000006 -5.800000000000001 459.20000000000005 -4.0L467.40000000000003 -2.0V0.0ZM505.0 0.0V-2.0L509.20000000000005 -3.4000000000000004Q513.2 -4.800000000000001 514.4000000000001 -7.1000000000000005Q515.6 -9.4 515.6 -13.600000000000001V-118.2Q515.6 -122.2 514.5 -124.5Q513.4 -126.80000000000001 509.6 -128.20000000000002L505.0 -130.0V-132.0H562.2Q585.8000000000001 -132.0 598.4000000000001 -123.1Q611.0 -114.2 611.0 -98.4Q611.0 -89.60000000000001 604.4000000000001 -80.80000000000001Q597.8000000000001 -72.0 583.6 -67.2L611.4000000000001 -12.0Q613.2 -8.6 615.5 -6.5Q617.8000000000001 -4.4 621.6 -2.8000000000000003L624.2 -1.8V0.0H588.4000000000001L558.8000000000001 -63.0H545.2V-13.600000000000001Q545.2 -9.8 546.4000000000001 -7.4Q547.6 -5.0 551.4 -3.8000000000000003L556.2 -2.0V0.0ZM545.2 -67.0H554.8000000000001Q569.2 -67.0 575.6 -74.7Q582.0 -82.4 582.0 -97.60000000000001Q582.0 -113.0 576.0 -120.5Q570.0 -128.0 555.8000000000001 -128.0H545.2ZM632.6 0.0V-2.0L637.2 -3.8000000000000003Q640.6 -5.2 641.9000000000001 -7.5Q643.2 -9.8 643.2 -13.8V-118.2Q643.2 -122.2 642.1 -124.5Q641.0 -126.80000000000001 637.2 -128.20000000000002L632.6 -130.0V-132.0H728.4000000000001L729.6 -101.2H727.6L719.0 -120.0Q717.2 -123.60000000000001 715.2 -125.80000000000001Q713.2 -128.0 709.2 -128.0H673.2V-70.2H694.6Q698.6 -70.2 700.7 -72.30000000000001Q702.8000000000001 -74.4 704.4000000000001 -78.0L708.4000000000001 -86.0H710.4000000000001V-50.0H708.4000000000001L704.4000000000001 -58.400000000000006Q702.6 -62.0 700.6 -64.1Q698.6 -66.2 694.6 -66.2H673.2V-4.0H713.6Q717.6 -4.0 719.8 -6.1000000000000005Q722.0 -8.200000000000001 723.4000000000001 -12.0L731.6 -30.8H733.6L732.4000000000001 0.0ZM788.6 3.6Q777.6 3.6 766.2 0.9Q754.8000000000001 -1.8 747.2 -6.2L748.2 -33.4H750.2L756.4000000000001 -20.400000000000002Q759.2 -14.8 762.4000000000001 -10.5Q765.6 -6.2 771.2 -3.8000000000000003Q775.2 -1.8 778.9000000000001 -1.1Q782.6 -0.4 787.2 -0.4Q799.4000000000001 -0.4 806.5 -7.000000000000001Q813.6 -13.600000000000001 813.6 -24.0Q813.6 -33.800000000000004 808.8 -39.300000000000004Q804.0 -44.800000000000004 793.4000000000001 -50.0L785.2 -53.6Q768.0 -61.2 758.3 -71.1Q748.6 -81.0 748.6 -97.4Q748.6 -109.2 754.7 -117.80000000000001Q760.8000000000001 -126.4 771.7 -131.0Q782.6 -135.6 797.2 -135.6Q807.8000000000001 -135.6 817.3000000000001 -132.8Q826.8000000000001 -130.0 833.8000000000001 -125.2L832.6 -101.2H830.6L822.4000000000001 -116.2Q819.0 -123.2 815.6 -126.1Q812.2 -129.0 807.8000000000001 -130.20000000000002Q805.2 -131.0 803.0 -131.3Q800.8000000000001 -131.6 797.4000000000001 -131.6Q787.2 -131.6 780.2 -125.7Q773.2 -119.80000000000001 773.2 -109.80000000000001Q773.2 -99.60000000000001 778.6 -93.5Q784.0 -87.4 794.4000000000001 -82.60000000000001L803.6 -78.60000000000001Q822.8000000000001 -70.2 831.2 -60.7Q839.6 -51.2 839.6 -36.2Q839.6 -18.6 826.3 -7.500000000000001Q813.0 3.6 788.6 3.6ZM894.8000000000001 3.6Q883.8000000000001 3.6 872.4000000000001 0.9Q861.0000000000001 -1.8 853.4000000000001 -6.2L854.4000000000001 -33.4H856.4000000000001L862.6000000000001 -20.400000000000002Q865.4000000000001 -14.8 868.6000000000001 -10.5Q871.8000000000001 -6.2 877.4000000000001 -3.8000000000000003Q881.4000000000001 -1.8 885.1000000000001 -1.1Q888.8000000000001 -0.4 893.4000000000001 -0.4Q905.6000000000001 -0.4 912.7 -7.000000000000001Q919.8000000000001 -13.600000000000001 919.8000000000001 -24.0Q919.8000000000001 -33.800000000000004 915.0 -39.300000000000004Q910.2 -44.800000000000004 899.6000000000001 -50.0L891.4000000000001 -53.6Q874.2 -61.2 864.5 -71.1Q854.8000000000001 -81.0 854.8000000000001 -97.4Q854.8000000000001 -109.2 860.9000000000001 -117.80000000000001Q867.0000000000001 -126.4 877.9000000000001 -131.0Q888.8000000000001 -135.6 903.4000000000001 -135.6Q914.0000000000001 -135.6 923.5000000000001 -132.8Q933.0000000000001 -130.0 940.0000000000001 -125.2L938.8000000000001 -101.2H936.8000000000001L928.6000000000001 -116.2Q925.2 -123.2 921.8000000000001 -126.1Q918.4000000000001 -129.0 914.0000000000001 -130.20000000000002Q911.4000000000001 -131.0 909.2 -131.3Q907.0000000000001 -131.6 903.6000000000001 -131.6Q893.4000000000001 -131.6 886.4000000000001 -125.7Q879.4000000000001 -119.80000000000001 879.4000000000001 -109.80000000000001Q879.4000000000001 -99.60000000000001 884.8000000000001 -93.5Q890.2 -87.4 900.6000000000001 -82.60000000000001L909.8000000000001 -78.60000000000001Q929.0000000000001 -70.2 937.4000000000001 -60.7Q945.8000000000001 -51.2 945.8000000000001 -36.2Q945.8000000000001 -18.6 932.5 -7.500000000000001Q919.2 3.6 894.8000000000001 3.6Z"/>
  <path transform="translate(193.7,237.5)" fill="#FFFFFF" fill-opacity=".85" d="M35.5578060720112 0.8423368740515935Q28.710603231687585 0.8423368740515935 22.889381175358835 -1.4112288095945194Q17.06815911903009 -3.6647944932406324 12.788657343827825 -7.79474310565374Q8.50915556862556 -11.924691718066848 6.11703314272696 -17.511320397129225Q3.7249107168283606 -23.097949076191604 3.7249107168283606 -29.764075067024134Q3.7249107168283606 -36.430201057856664 6.11703314272696 -42.01682973691904Q8.50915556862556 -47.60345841598142 12.825679240798099 -51.733407028394524Q17.142202912970635 -55.86335564080763 22.963424969299382 -58.11692132445374Q28.784647025628125 -60.37048700809986 35.63184986595175 -60.37048700809986Q42.910116078293726 -60.37048700809986 48.967397086796915 -57.8643677414743Q55.024678095300104 -55.35824847484874 59.150594072352945 -50.46403941768485L52.03288666078905 -43.67036232258875Q48.80428966047114 -47.20906206902164 44.80079988422973 -48.96338288634115Q40.79731010798833 -50.71770370366066 36.1340258820945 -50.71770370366066Q31.506662067626813 -50.71770370366066 27.6226673423807 -49.17891457235032Q23.738672617134586 -47.64012544103999 20.873694890706943 -44.832696877747885Q18.008717164279297 -42.02526831445578 16.43290613599869 -38.18782633180853Q14.857095107718079 -34.35038434916128 14.857095107718079 -29.764075067024134Q14.857095107718079 -25.177765784886986 16.43290613599869 -21.34032380223974Q18.008717164279297 -17.502881819592496 20.873694890706943 -14.695453256300386Q23.738672617134586 -11.888024693008278 27.6226673423807 -10.349235561697942Q31.506662067626813 -8.810446430387605 36.1340258820945 -8.810446430387605Q40.79731010798833 -8.810446430387605 44.80079988422973 -10.564767247707117Q48.80428966047114 -12.31908806502663 52.03288666078905 -15.93183160540006L59.150594072352945 -9.138154510303963Q55.024678095300104 -4.254941873676736 48.967397086796915 -1.7063024998125713Q42.910116078293726 0.8423368740515935 35.5578060720112 0.8423368740515935ZM113.92344242958185 0.8423368740515935Q107.00180893722958 0.8423368740515935 101.116460790677 -1.4537489168331255Q95.23111264412442 -3.749834707717844 90.90909076168356 -7.885281530399286Q86.58706887924268 -12.02072835308073 84.18944824307574 -17.588894859988287Q81.79182760690881 -23.157061366895842 81.79182760690881 -29.769259093848564Q81.79182760690881 -36.38145682080128 84.18948465506428 -41.94208292505512Q86.58714170321974 -47.50270902930896 90.91854502465574 -51.651196399428564Q95.24994834609176 -55.79968376954817 101.10897785784738 -58.08508538882401Q106.96800736960301 -60.37048700809986 113.90183644659663 -60.37048700809986Q120.84507592193414 -60.37048700809986 126.67812888143402 -58.09825425150471Q132.51118184093392 -55.82602149490957 136.82683461848345 -51.70138715907954Q141.14248739603298 -47.57675282324951 143.54014444418846 -41.9905743508907Q145.9378014923439 -36.404395878531886 145.9378014923439 -29.76185471445451Q145.9378014923439 -23.119313550377136 143.54018085617696 -17.532999054758662Q141.14256022001004 -11.946684559140188 136.82687103047198 -7.824406599139445Q132.51118184093392 -3.702128639138703 126.67812888143402 -1.4298958825435548Q120.84507592193414 0.8423368740515935 113.92344242958185 0.8423368740515935ZM113.90134406955768 -8.810446430387605Q118.41117078497709 -8.810446430387605 122.21011181095474 -10.360263360795471Q126.00905283693238 -11.910080291203336 128.8315239409127 -14.738004742099852Q131.65399504489298 -17.565929192996368 133.2298060731736 -21.388702122127093Q134.8056171014542 -25.211475051257814 134.8056171014542 -29.786427910477887Q134.8056171014542 -34.36138076969795 133.23812560058263 -38.15544213261286Q131.67063409971107 -41.949503495527765 128.8446194933158 -44.78153180295867Q126.01860488692054 -47.613560110389564 122.21538021298777 -49.165631907025116Q118.412155539055 -50.71770370366066 113.90232882363559 -50.71770370366066Q109.39250210821618 -50.71770370366066 105.57159136726574 -49.16323041895405Q101.7506806263153 -47.60875713424744 98.91190941122616 -44.77235811852721Q96.07313819613702 -41.93595910280698 94.49857509696778 -38.136086138760106Q92.92401199779853 -34.33621317471324 92.92401199779853 -29.78851316650205Q92.92401199779853 -25.24081315829086 94.49516292715981 -21.418040229160134Q96.06631385652108 -17.595267300029413 98.89892978489779 -14.741645996518844Q101.7315457132745 -11.888024693008278 105.56153153370639 -10.349235561697942Q109.39151735413826 -8.810446430387605 113.90134406955768 -8.810446430387605ZM174.70999573997955 0.0V-59.52815013404827H183.80341795450443L221.11189473274334 -13.67532555448555H216.56811477529703V-59.52815013404827H227.53828400795288V0.0H218.444861793428L181.1363850151891 -45.85282457956272H185.68016497263537V0.0ZM272.63819943521315 0.0V-50.185469575724056H252.90959785522793V-59.52815013404827H303.40294877107425V-50.185469575724056H283.674347191089V0.0ZM320.34062563602464 0.0 347.1033692054569 -59.52815013404827H358.0214874852455L384.8582748486183 0.0H373.2898929648058L350.2945710019883 -53.63179201568711H354.7122562126268L331.7169342498093 0.0ZM332.7081053253744 -13.780920687484782 335.6632481697314 -22.462341221248497H367.7850000435883L370.8141866818858 -13.780920687484782ZM409.50602791156143 0.0V-59.52815013404827H437.3867470471899Q448.08861467969365 -59.52815013404827 453.6972361998294 -55.333688573323215Q459.3058577199651 -51.13922701259816 459.3058577199651 -44.039834678659055Q459.3058577199651 -39.3105719295452 457.0933465686495 -35.92949061662199Q454.88083541733397 -32.54840930369878 451.192218418748 -30.72957553806733Q447.50360142016194 -28.910741772435873 443.1218366209496 -28.910741772435873L444.6745533226127 -31.947993681453923Q449.72271226729 -31.947993681453923 453.70897001654623 -30.140156336359134Q457.6952277658025 -28.332318991264348 460.0147719726686 -24.81817914635699Q462.3343161795347 -21.30403930144963 462.3343161795347 -16.190630012280252Q462.3343161795347 -8.52601428879452 456.4691084410593 -4.26300714439726Q450.60390070258387 0.0 439.0875513367341 0.0ZM420.4981899852906 -8.700482225020911H438.4233601623575Q444.6276364906499 -8.700482225020911 447.9148841396475 -10.742548858018111Q451.20213178864503 -12.784615491015312 451.20213178864503 -17.227971306175757Q451.20213178864503 -21.671327121336198 447.9148841396475 -23.75041565130367Q444.6276364906499 -25.82950418127114 438.4233601623575 -25.82950418127114H419.65585311123897V-34.43101862146203H436.14633606273Q441.91734604791577 -34.43101862146203 445.0455096884956 -36.46758704419089Q448.17367332907537 -38.504155466919755 448.17367332907537 -42.62934326524469Q448.17367332907537 -46.7655274841063 445.0455096884956 -48.796597696566835Q441.91734604791577 -50.82766790902736 436.14633606273 -50.82766790902736H420.4981899852906ZM491.22967402416197 0.0V-59.52815013404827H502.26582178003775V0.0ZM535.3655453378349 0.0V-59.52815013404827H546.4016930937107V-9.342680558324215H577.4948971231206V0.0ZM603.3126767051272 0.0V-59.52815013404827H614.348824461003V0.0ZM647.4485480188001 0.0V-59.52815013404827H673.4554512861139Q683.1089812041854 -59.52815013404827 690.4184070138654 -55.80287532785596Q697.7278328235453 -52.07760052166364 701.8317559595248 -45.40744189547085Q705.9356790955044 -38.73728326927806 705.9356790955044 -29.764075067024134Q705.9356790955044 -20.801863285306887 701.8317559595248 -14.126206448845759Q697.7278328235453 -7.450549612384631 690.4184070138654 -3.7252748061923153Q683.1089812041854 0.0 673.4554512861139 0.0ZM658.484695774676 -9.353676978860884H672.9012243171039Q679.5966802410023 -9.353676978860884 684.4886955445303 -11.894988478184686Q689.3807108480582 -14.436299977508488 692.0921027763364 -19.032140105274234Q694.8034947046146 -23.627980233039978 694.8034947046146 -29.764075067024134Q694.8034947046146 -35.98521011548551 692.0921027763364 -40.53853013601264Q689.3807108480582 -45.09185015653978 684.4886955445303 -47.63316165586359Q679.5966802410023 -50.17447315518739 672.9012243171039 -50.17447315518739H658.484695774676ZM726.2375693357568 0.0 753.000312905189 -59.52815013404827H763.9184311849776L790.7552185483504 0.0H779.186836664538L756.1915147017205 -53.63179201568711H760.609199912359L737.6138779495415 0.0ZM738.6050490251066 -13.780920687484782 741.5601918694636 -22.462341221248497H773.6819437433205L776.711130381618 -13.780920687484782ZM815.4029716112935 0.0V-59.52815013404827H841.4098748786073Q851.0634047966788 -59.52815013404827 858.3728306063588 -55.80287532785596Q865.6822564160387 -52.07760052166364 869.7861795520182 -45.40744189547085Q873.8901026879978 -38.73728326927806 873.8901026879978 -29.764075067024134Q873.8901026879978 -20.801863285306887 869.7861795520182 -14.126206448845759Q865.6822564160387 -7.450549612384631 858.3728306063588 -3.7252748061923153Q851.0634047966788 0.0 841.4098748786073 0.0ZM826.4391193671694 -9.353676978860884H840.8556479095973Q847.5511038334957 -9.353676978860884 852.4431191370237 -11.894988478184686Q857.3351344405517 -14.436299977508488 860.0465263688299 -19.032140105274234Q862.7579182971081 -23.627980233039978 862.7579182971081 -29.764075067024134Q862.7579182971081 -35.98521011548551 860.0465263688299 -40.53853013601264Q857.3351344405517 -45.09185015653978 852.4431191370237 -47.63316165586359Q847.5511038334957 -50.17447315518739 840.8556479095973 -50.17447315518739H826.4391193671694ZM902.6542316649129 0.0V-59.52815013404827H946.0811795084302V-50.2404516784074H913.6463937386421V-9.287698455640868H947.2607460905745V0.0ZM912.8040568645905 -25.700478284647254V-34.75211778811368H942.4464431269834V-25.700478284647254Z"/>
  </g>
</svg>
